<?xml version="1.0" standalone="no"?>
<!DOCTYPE svg PUBLIC "-//W3C//DTD SVG 20010904//EN"
 "http://www.w3.org/TR/2001/REC-SVG-20010904/DTD/svg10.dtd">
<svg version="1.0" xmlns="http://www.w3.org/2000/svg"
 width="4984.000000pt" height="2002.000000pt" viewBox="0 0 4984.000000 2002.000000"
 preserveAspectRatio="xMidYMid meet">

<g transform="translate(0.000000,2002.000000) scale(0.100000,-0.100000)"
fill="#000000" stroke="none">
<path d="M0 11260 l0 -8755 1250 -1250 1250 -1250 0 8755 0 8755 -1250 1250
-1250 1250 0 -8755z"/>
<path d="M3758 11313 c-687 -687 -1248 -1251 -1248 -1255 0 -5 2250 -8 5000
-8 l5000 0 0 -3755 0 -3755 -3753 0 -3752 0 -1250 -1250 -1250 -1250 3755 0
3755 0 1250 1250 1250 1250 1247 -1247 1248 -1248 0 3755 0 3755 -1250 1250
-1250 1250 1252 1252 1253 1253 -5005 0 -5005 0 -1247 -1247z"/>
<path d="M21180 11305 l-1255 -1255 4955 0 4955 0 1248 1248 c686 686 1247
1250 1247 1255 0 4 -2226 7 -4948 7 l-4947 0 -1255 -1255z"/>
<path d="M36075 11300 l-1250 -1250 5005 0 5005 0 1250 1250 1250 1250 -5005
0 -5005 0 -1250 -1250z"/>
<path d="M47340 7545 l0 -5000 1250 -1250 1250 -1250 0 5000 0 5000 -1250
1250 -1250 1250 0 -5000z"/>
<path d="M17420 10033 l0 -2498 1247 -1247 c687 -687 1251 -1248 1255 -1248 5
0 8 1124 8 2498 l0 2497 -1248 1248 c-686 686 -1250 1247 -1255 1247 -4 0 -7
-1124 -7 -2497z"/>
<path d="M34830 6295 l0 -3750 1250 -1250 1250 -1250 0 3750 0 3750 -1250
1250 -1250 1250 0 -3750z"/>
<path d="M39830 6295 l0 -3750 1250 -1250 1250 -1250 0 3750 0 3750 -1250
1250 -1250 1250 0 -3750z"/>
<path d="M21187 6302 c-686 -686 -1247 -1250 -1247 -1255 0 -4 1664 -7 3697
-7 l3698 0 1247 1247 1248 1248 0 -2495 0 -2495 1247 -1247 c687 -687 1251
-1248 1255 -1248 5 0 8 1124 8 2498 l0 2497 -1253 1253 -1252 1252 -3700 0
-3700 0 -1248 -1248z"/>
<path d="M18675 1290 l-1250 -1250 4955 0 4955 0 1250 1250 1250 1250 -4955 0
-4955 0 -1250 -1250z"/>
</g>
</svg>
