<?xml version="1.0" standalone="no"?>
<!DOCTYPE svg PUBLIC "-//W3C//DTD SVG 20010904//EN"
 "http://www.w3.org/TR/2001/REC-SVG-20010904/DTD/svg10.dtd">
<svg version="1.0" xmlns="http://www.w3.org/2000/svg"
 width="2579.000000pt" height="3438.000000pt" viewBox="0 0 2579.000000 3438.000000"
 preserveAspectRatio="xMidYMid meet">

<g transform="translate(0.000000,3438.000000) scale(0.100000,-0.100000)"
fill="#000000" stroke="none">
<path d="M0 19332 l0 -15037 2150 -2150 c1991 -1991 2150 -2148 2150 -2117 l0
32 6448 0 6447 0 2150 2150 2150 2150 -6450 0 -6450 0 -2147 -2147 -2148
-2148 0 8598 0 8597 8595 0 8595 0 0 -6443 0 -6442 2150 -2150 2150 -2150 0
6445 0 6445 -2150 2150 -2150 2150 2147 2147 2148 2148 -8595 0 -8595 0 -2147
-2147 -2148 -2148 0 6410 0 6410 -2143 2143 c-1178 1178 -2146 2142 -2150
2142 -4 0 -7 -6767 -7 -15038z"/>
</g>
</svg>
